<svg width="59" height="61" viewBox="0 0 59 61" fill="none" xmlns="http://www.w3.org/2000/svg">
<path d="M34.2856 22.2576C34.3189 22.2595 34.3522 22.2629 34.3855 22.2672C34.7308 22.3096 35.0389 22.4596 35.2852 22.7102C35.3789 22.8057 35.4632 22.9155 35.5374 23.0401L35.5433 23.0497L35.5495 23.0601L35.5653 23.0874C35.8916 23.6794 35.96 24.3655 35.8996 25.0916C35.8715 25.4209 35.8193 25.751 35.767 26.082C35.7409 26.2476 35.7146 26.4138 35.6914 26.5798C35.4801 27.2802 35.1898 27.9543 34.7441 28.5821C34.4032 29.0624 33.99 29.4697 33.4861 29.7924C32.9126 30.1553 32.3285 30.3214 31.7985 30.3118C31.7634 30.3109 31.7283 30.3095 31.6937 30.3076C31.5215 30.2966 31.3559 30.2665 31.1992 30.2187C30.5192 30.0111 30.002 29.4615 29.836 28.6308C29.7388 28.1486 29.7623 27.6425 29.887 27.1217C30.2222 25.7629 30.8845 24.5149 31.9405 23.4292C32.2353 23.1198 32.597 22.8415 32.965 22.6214C33.1093 22.5364 33.2522 22.4667 33.3934 22.4113C33.5629 22.3455 33.7298 22.3001 33.8914 22.2757C34.0268 22.2557 34.1582 22.2495 34.2856 22.2576Z" fill="#7B4DFF"/>
<path d="M39.2899 28.6254C39.2029 28.6034 39.1114 28.5891 39.0164 28.5834C38.9245 28.5776 38.8291 28.5796 38.7306 28.5891C38.6156 28.6006 38.4962 28.623 38.3737 28.6564C38.3293 28.6684 38.2849 28.6817 38.2401 28.697C37.8605 28.8211 37.4659 29.0178 37.1192 29.2604C36.0024 30.0305 35.1821 31.0412 34.5761 32.2032C34.316 32.7045 34.1593 33.2235 34.1198 33.7496C34.0346 34.938 34.7346 35.7186 35.752 35.8059L35.8004 35.8102L35.8219 35.8114L35.8477 35.8125L35.8741 35.8136C36.2075 35.8236 36.5723 35.7611 36.9519 35.6164C36.994 35.6006 37.0367 35.5839 37.0797 35.5658C37.7087 35.2989 38.2321 34.8826 38.6857 34.3665C39.4315 33.5095 39.8501 32.5422 40.1386 31.6141C40.3321 30.8808 40.4316 30.2315 40.2611 29.6232C40.2225 29.4891 40.1715 29.3668 40.1089 29.257C40.0893 29.2217 40.068 29.1883 40.0463 29.1558C39.8629 28.8865 39.6037 28.7051 39.2899 28.6254Z" fill="#7B4DFF"/>
<path d="M18.2404 29.6888C18.2843 29.6883 18.3278 29.6893 18.3718 29.6921C18.4131 29.6945 18.4539 29.6988 18.4943 29.7046C18.7673 29.7418 19.0332 29.8459 19.2804 30.0201C19.8535 30.4212 20.1922 31.0084 20.4142 31.6677C20.7204 32.5882 20.8838 33.5498 20.5975 34.614L20.5893 34.6431C20.5824 34.6679 20.5754 34.6929 20.5677 34.7176C20.2894 35.6462 19.7479 36.4105 18.7859 36.8464C18.6221 36.9223 18.4579 36.9787 18.2945 37.0178C18.0655 37.0727 17.8373 37.0928 17.6163 37.0789C17.4525 37.0689 17.2922 37.0398 17.1382 36.993C16.744 36.8732 16.3884 36.6359 16.107 36.2912C15.5268 35.5774 15.3906 34.6808 15.4731 33.6973C15.4976 33.4138 15.5431 33.1275 15.5886 32.841C15.614 32.6808 15.6395 32.5204 15.6613 32.3605C15.8411 31.8167 16.06 31.2863 16.4106 30.7902C16.5949 30.53 16.8017 30.3138 17.0223 30.1438C17.4028 29.8502 17.8245 29.6945 18.2404 29.6888Z" fill="#7B4DFF"/>
<path d="M26.6566 22.3204C26.5004 22.2588 26.3361 22.2225 26.1666 22.212C26.1137 22.2087 26.06 22.2077 26.0059 22.2096C25.8976 22.2125 25.7875 22.2259 25.6761 22.2488C25.6481 22.2545 25.6206 22.2612 25.5922 22.2679C25.3684 22.3237 25.1403 22.4197 24.9126 22.5553C24.8842 22.5725 24.8557 22.5902 24.8269 22.6083C24.3839 22.8871 24.0354 23.2562 23.7393 23.6711C23.1609 24.475 22.7814 25.3182 22.5501 26.189C22.4729 26.4793 22.4121 26.7724 22.3655 27.0684C22.2368 27.8849 22.3322 28.6311 22.7144 29.2794C22.7721 29.3768 22.8347 29.4675 22.9022 29.5516C23.2537 29.9875 23.7349 30.2343 24.2636 30.2973C24.3058 30.3026 24.3479 30.3064 24.3905 30.3088C24.474 30.314 24.5591 30.3157 24.6438 30.3118C25.3665 30.2813 26.139 29.9306 26.772 29.2751C26.8608 29.1835 26.9474 29.0856 27.0299 28.9815C27.4667 28.4277 27.7468 27.8319 27.9133 27.1973C28.1947 26.0148 28.2125 24.8899 27.8929 23.8334C27.7393 23.3211 27.4929 22.8723 27.0703 22.5548C26.9403 22.4546 26.8022 22.3767 26.6566 22.3204Z" fill="#7B4DFF"/>
<path d="M28.9832 31.24C28.9419 31.2352 28.9011 31.2318 28.8589 31.229C28.7213 31.2204 28.581 31.2228 28.4386 31.2366C28.1349 31.2653 27.8215 31.345 27.4873 31.4835C27.2773 31.5718 27.066 31.6825 26.8556 31.8157C26.2541 32.201 25.7681 32.699 25.3588 33.2705C24.4044 34.6006 23.2627 35.702 21.8201 36.5361C20.396 37.3606 19.4394 38.5375 19.1824 40.0863C18.9481 41.4937 19.5509 42.6844 20.717 43.1127C20.9363 43.1948 21.1653 43.2531 21.4015 43.285C21.48 43.296 21.5599 43.3041 21.6398 43.3094C21.8955 43.3252 22.1588 43.3123 22.4273 43.2683C23.04 43.1705 23.6507 43.0469 24.2635 42.923C24.482 42.8788 24.7006 42.8345 24.9198 42.7914C25.2057 42.736 25.48 42.716 25.7446 42.7327C26.0091 42.7494 26.2639 42.8028 26.5098 42.8921C26.6594 42.9488 26.8085 43.0067 26.9578 43.0647C27.3278 43.2084 27.6985 43.3524 28.0768 43.4779C28.5034 43.6212 28.9477 43.7181 29.4054 43.805C29.4849 43.8013 29.564 43.7994 29.6431 43.7974C29.8039 43.7934 29.9646 43.7895 30.1285 43.7715C30.3478 43.7429 30.5715 43.6937 30.7899 43.6283C32.3493 43.1404 33.629 41.5295 33.7551 39.9034C33.8452 38.7299 33.4195 37.8256 32.6969 37.0765C31.8304 36.1809 31.3474 35.0666 31.1721 33.7756C31.0842 33.1621 30.9057 32.6011 30.5453 32.1342C30.4174 31.9661 30.2736 31.821 30.1174 31.6993C30.0925 31.6797 30.0677 31.6606 30.0419 31.6424C29.7294 31.419 29.3698 31.2844 28.9832 31.24Z" fill="#7B4DFF"/>
<path fill-rule="evenodd" clip-rule="evenodd" d="M31.2335 0C30.7726 0 30.362 0.314166 30.2144 0.77963L29.3524 3.51074C29.2814 3.73529 29.0835 3.88707 28.8608 3.88707H19.2075C18.0273 3.88707 16.9797 4.68886 16.603 5.87902L0.104155 58.1243C-0.341774 59.5376 0.703841 61 2.1041 61H38.9799C40.5907 61 43.5905 59.749 44.1038 58.1246L51.704 32.401L58.8986 6.46013C58.9629 6.25824 58.9937 6.05442 58.9959 5.85541V5.81687C58.9864 4.78812 58.2005 3.88707 57.1602 3.88707H46.2356C46.0496 3.88707 45.9183 3.6924 45.9776 3.504L46.7662 1.00754C46.9224 0.512686 46.577 0 46.0858 0H31.2335ZM46.2356 12.5676C46.4538 12.5676 46.6467 12.4187 46.7151 12.1985L47.6816 9.07512C47.7215 8.9484 47.8324 8.86311 47.9578 8.86311H51.704C51.9014 8.86311 52.0413 9.06741 51.9802 9.2669L40.2611 47.7212L35.3853 46.3311C34.8122 46.1938 34.2187 46.3354 33.7551 46.7176C33.3142 47.0804 33.0412 47.6186 32.9973 48.2065L31.7564 55.1036H6.45443L20.4674 9.12379C20.5145 8.96815 20.6507 8.86311 20.8047 8.86311H23.6817C23.9234 8.86311 24.0941 9.11463 24.0185 9.35845L23.1919 12.0293C23.1095 12.2943 23.2955 12.5676 23.5572 12.5676H46.2356ZM34.9276 48.5317L34.9168 48.43L34.92 48.3496L39.0048 49.5147L33.9317 54.0677L34.9276 48.5317Z" fill="#7B4DFF"/>
</svg>
