<svg width="70" height="62" viewBox="0 0 70 62" fill="none" xmlns="http://www.w3.org/2000/svg">
<path d="M35 61.3846C30.2604 61.3846 25.7259 60.5754 21.3965 58.9568C17.0671 57.3383 13.3415 55.1602 10.2197 52.4227C7.09798 49.6852 4.61426 46.4181 2.76855 42.6215C0.922852 38.825 0 34.8486 0 30.6923C0 26.5361 0.922852 22.5596 2.76855 18.7631C4.61426 14.9665 7.09798 11.6994 10.2197 8.96192C13.3415 6.22438 17.0671 4.04635 21.3965 2.42781C25.7259 0.80927 30.2604 0 35 0C39.7396 0 44.2741 0.80927 48.6035 2.42781C52.9329 4.04635 56.6585 6.22438 59.7803 8.96192C62.902 11.6994 65.3857 14.9665 67.2314 18.7631C69.0771 22.5596 70 26.5361 70 30.6923C70 34.8486 69.0771 38.825 67.2314 42.6215C65.3857 46.4181 62.902 49.6852 59.7803 52.4227C56.6585 55.1602 52.9329 57.3383 48.6035 58.9568C44.2741 60.5754 39.7396 61.3846 35 61.3846ZM20.0293 17.5642L16.748 15.0464C16.2467 15.0464 15.6543 15.0964 14.9707 15.1963C14.2871 15.2962 13.6719 15.3462 13.125 15.3462C13.0794 15.3062 12.6693 14.5669 11.8945 13.1282C6.88151 18.2036 4.375 24.0583 4.375 30.6923C4.375 30.8122 4.38639 30.9721 4.40918 31.1719C4.43197 31.3717 4.44336 31.5116 4.44336 31.5915C4.7168 31.8313 5.389 32.2809 6.45996 32.9403C7.53092 33.5997 8.29427 34.1292 8.75 34.5289H13.125C13.2617 34.4489 13.387 34.389 13.501 34.349C13.6149 34.309 13.7402 34.2691 13.877 34.2291C13.4212 33.7895 12.749 33.1401 11.8604 32.2809C10.9717 31.4217 10.2995 30.7922 9.84375 30.3926C10.026 29.4734 10.2767 28.0847 10.5957 26.2263C10.9147 24.368 11.1426 22.9793 11.2793 22.0601C15.1986 20.6214 18.1152 19.5624 20.0293 18.883V17.5642ZM33.7695 7.79297C33.1315 7.55319 32.5391 7.33338 31.9922 7.13356C31.8555 6.81385 31.7643 6.57407 31.7188 6.41421C31.4453 7.17353 31.0124 8.3125 30.4199 9.83113C30.6022 9.87109 30.8643 9.91106 31.2061 9.95102C31.5479 9.99099 31.8099 10.031 31.9922 10.0709H33.7695V7.79297ZM33.4961 36.0275C33.2682 36.2273 33.1087 36.3872 33.0176 36.5071C32.4707 37.3463 31.696 38.6252 30.6934 40.3436C29.6908 42.0621 28.9388 43.3409 28.4375 44.1801C29.0755 45.0194 30.0439 46.2982 31.3428 48.0167C32.6416 49.7351 33.61 51.014 34.248 51.8532C40.1725 52.1729 44.6615 52.4127 47.7148 52.5726C47.806 53.5717 48.1706 54.2511 48.8086 54.6107C52.9557 52.7724 56.4648 50.2247 59.3359 46.9676C62.207 43.7106 64.0983 40.0639 65.0098 36.0275C64.1439 35.8676 63.1982 35.6478 62.1729 35.3681C61.1475 35.0883 60.4069 34.8985 59.9512 34.7986C59.4954 34.6987 58.5954 34.5988 57.251 34.4989C55.9066 34.399 54.5052 34.4689 53.0469 34.7087C52.5 34.7486 52.1468 34.4389 51.9873 33.7795C51.8278 33.1201 51.748 32.4407 51.748 31.7414C51.748 31.042 51.6569 30.6723 51.4746 30.6324C50.472 30.4725 48.444 30.6224 45.3906 31.082C42.3372 31.5415 40.3092 31.6914 39.3066 31.5316C38.7142 32.0111 36.7773 33.5098 33.4961 36.0275ZM37.5293 5.99459C37.3926 6.79387 37.1533 7.99279 36.8115 9.59135C36.4697 11.1899 36.2077 12.4088 36.0254 13.248C36.2533 13.2081 36.6292 13.1581 37.1533 13.0982C37.6774 13.0382 38.0534 13.0083 38.2812 13.0083C38.1445 12.9283 37.985 12.8484 37.8027 12.7685C38.4863 12.5687 38.9876 12.4088 39.3066 12.2889C38.5319 9.49144 37.9395 7.39333 37.5293 5.99459ZM45.459 5.45508C45.3678 5.89468 45.3223 6.51412 45.3223 7.3134C45.3223 8.11268 45.0944 9.17173 44.6387 10.4905C44.6842 10.5705 44.7754 10.6504 44.9121 10.7303C45.8236 10.6504 47.3503 10.5105 49.4922 10.3107C49.4922 9.47146 49.9707 8.63221 50.9277 7.79297C49.196 6.8738 47.373 6.0945 45.459 5.45508ZM54.0039 9.65129C53.9128 9.81115 53.7533 10.031 53.5254 10.3107C54.3913 10.4306 54.9609 10.5305 55.2344 10.6104C54.6875 10.1708 54.2773 9.85111 54.0039 9.65129ZM55.8496 11.09C55.7129 11.3298 55.4964 11.6895 55.2002 12.169C54.904 12.6486 54.6875 13.0083 54.5508 13.248C53.2292 13.288 51.4518 13.348 49.2188 13.4279L48.9453 11.3897C48.8542 11.4297 48.6947 11.4796 48.4668 11.5396C48.2389 11.5995 48.0566 11.6295 47.9199 11.6295V14.5669C46.9629 14.6468 45.4932 14.7667 43.5107 14.9265C41.5283 15.0864 40.0586 15.2063 39.1016 15.2862C38.7826 15.6858 38.4408 16.1255 38.0762 16.605C39.3066 18.9229 40.2409 20.6614 40.8789 21.8203C39.9674 22.0201 38.099 22.4597 35.2734 23.1391V25.1773C35.2734 25.2572 35.3076 25.3771 35.376 25.537C35.4443 25.6968 35.5013 25.8167 35.5469 25.8966C36.3216 26.2163 37.5293 26.6959 39.1699 27.3353C40.8105 27.9748 42.041 28.4743 42.8613 28.834L44.3652 27.2154C44.3197 26.8158 44.2057 26.1864 44.0234 25.3272C43.8411 24.4679 43.7044 23.8185 43.6133 23.3789C43.75 23.299 43.9665 23.1891 44.2627 23.0492C44.5589 22.9093 44.7754 22.7994 44.9121 22.7195C46.1426 22.3998 47.0768 22.18 47.7148 22.0601C48.3073 22.8993 49.139 24.0983 50.21 25.6569C51.2809 27.2154 51.9531 28.1946 52.2266 28.5942C52.6367 28.2745 53.2064 27.7849 53.9355 27.1255C54.6647 26.4661 55.2116 25.9766 55.5762 25.6569C53.1152 24.1382 51.4974 23.1591 50.7227 22.7195C50.7682 22.3998 50.8594 21.9402 50.9961 21.3407H53.5254C56.0775 23.259 58.6979 25.2172 61.3867 27.2154C61.4323 27.2154 61.4779 27.1855 61.5234 27.1255C61.569 27.0656 61.6146 27.0356 61.6602 27.0356C61.4779 26.7159 60.8854 25.7368 59.8828 24.0983C59.8828 24.0583 59.9512 23.9784 60.0879 23.8585L60.3613 23.6187H63.1641C63.2096 23.5787 63.597 23.3989 64.3262 23.0792C62.7767 18.4434 59.9512 14.447 55.8496 11.09Z" fill="#7B4DFF" fill-opacity="0.8"/>
</svg>
