<svg width="70" height="66" viewBox="0 0 70 66" fill="none" xmlns="http://www.w3.org/2000/svg">
<path d="M63.5832 60.9745C63.764 60.8175 63.9414 60.657 64.1152 60.4932C66.7584 58.0011 68.5981 54.7027 68.8623 51.2665L68.8626 51.2626C69.6986 39.1493 69.6986 26.854 68.8626 14.7354L68.8623 14.7314C68.5981 11.2978 66.7583 8.00083 64.1151 5.50941C63.9606 5.36377 63.8032 5.22075 63.6431 5.0805C63.8187 5.23268 63.9914 5.38865 64.1611 5.54831C66.9171 8.15232 68.6248 11.5083 68.8755 14.7417C69.7082 26.8561 69.7082 39.1416 68.8755 51.2559C68.6249 54.4949 66.9171 57.851 64.1611 60.455C63.9721 60.6328 63.7794 60.806 63.5832 60.9745ZM5.8849 60.4939C6.03952 60.6397 6.19703 60.7828 6.35728 60.9232C6.18162 60.7709 6.0088 60.6149 5.83904 60.4551C3.0829 57.851 1.37516 54.4949 1.12451 51.2614C0.291829 39.1417 0.29183 26.8563 1.12451 14.742C1.37516 11.5083 3.08299 8.15211 5.83928 5.54798C6.00293 5.39401 6.16942 5.24346 6.33855 5.09644C6.18448 5.23183 6.03295 5.36978 5.88408 5.51017C3.24162 8.0023 1.40186 11.3006 1.13773 14.7368L1.13771 14.7368L1.13744 14.7407C0.301412 26.854 0.301413 39.1493 1.13743 51.268L1.13773 51.2719C1.40188 54.7055 3.24173 58.0025 5.8849 60.4939Z" fill="#FB44FF" stroke="#7B4DFF"/>
<path d="M35.0026 44.2896C35.001 44.2897 34.9993 44.2898 34.9974 44.2898C34.9954 44.2898 34.9937 44.2897 34.9922 44.2895V21.7089C34.9937 21.7086 34.9954 21.7085 34.9974 21.7085C34.9994 21.7085 35.0011 21.7086 35.0026 21.7089V44.2896Z" fill="#FB44FF" stroke="#7B4DFF"/>
<mask id="path-3-inside-1_10_27" fill="white">
<path d="M46.9977 33.4756H22.9974C22.7193 33.4756 22.4922 33.2615 22.4922 32.9993C22.4922 32.737 22.7193 32.5229 22.9974 32.5229H46.9977C47.2759 32.5229 47.5029 32.737 47.5029 32.9993C47.5029 33.2615 47.2759 33.4756 46.9977 33.4756Z"/>
</mask>
<path d="M46.9977 33.4756H22.9974C22.7193 33.4756 22.4922 33.2615 22.4922 32.9993C22.4922 32.737 22.7193 32.5229 22.9974 32.5229H46.9977C47.2759 32.5229 47.5029 32.737 47.5029 32.9993C47.5029 33.2615 47.2759 33.4756 46.9977 33.4756Z" fill="#FB44FF"/>
<path d="M46.9977 32.4756H22.9974V34.4756H46.9977V32.4756ZM22.9974 32.4756C23.2152 32.4756 23.4922 32.6546 23.4922 32.9993H21.4922C21.4922 33.8685 22.2233 34.4756 22.9974 34.4756V32.4756ZM23.4922 32.9993C23.4922 33.344 23.2153 33.5229 22.9974 33.5229V31.5229C22.2232 31.5229 21.4922 32.1301 21.4922 32.9993H23.4922ZM22.9974 33.5229H46.9977V31.5229H22.9974V33.5229ZM46.9977 33.5229C46.7798 33.5229 46.5029 33.344 46.5029 32.9993H48.5029C48.5029 32.1301 47.7719 31.5229 46.9977 31.5229V33.5229ZM46.5029 32.9993C46.5029 32.6546 46.7799 32.4756 46.9977 32.4756V34.4756C47.7719 34.4756 48.5029 33.8685 48.5029 32.9993H46.5029Z" fill="#7B4DFF" mask="url(#path-3-inside-1_10_27)"/>
</svg>
