<svg width="20" height="22" viewBox="0 0 20 22" fill="none" xmlns="http://www.w3.org/2000/svg">
<path fill-rule="evenodd" clip-rule="evenodd" d="M6.41202 13.6913C6.80998 13.4018 7.35935 13.4449 7.7073 13.7929L10.0002 16.0858L12.2931 13.7929C12.641 13.4449 13.1904 13.4018 13.5884 13.6913L19.0884 17.6913C19.2914 17.839 19.4315 18.0576 19.4808 18.3039L19.9808 20.8039C20.0891 21.3454 19.7379 21.8723 19.1963 21.9806C18.6547 22.0889 18.1279 21.7377 18.0196 21.1961L17.5962 19.079L13.1031 15.8113L10.7073 18.2071C10.3168 18.5976 9.68361 18.5976 9.29309 18.2071L6.8973 15.8113L2.40419 19.079L1.98077 21.1961C1.87246 21.7377 1.34564 22.0889 0.804077 21.9806C0.262517 21.8723 -0.0886997 21.3454 0.0196121 20.8039L0.519612 18.3039C0.568859 18.0576 0.708941 17.839 0.912021 17.6913L6.41202 13.6913Z" fill="black" fill-opacity="0.85"/>
<path fill-rule="evenodd" clip-rule="evenodd" d="M3.00019 7C3.00019 3.134 6.13421 0 10.0002 0C13.8662 0 17.0002 3.134 17.0002 7C17.0002 8.93271 16.2156 10.6841 14.9499 11.9498C14.5594 12.3403 13.9263 12.3403 13.5357 11.9498C13.1452 11.5592 13.1452 10.9261 13.5357 10.5355C13.8089 10.2624 14.0504 9.95815 14.2546 9.62849C14.2945 9.34246 14.1849 9.07864 13.8813 8.76036C13.5791 8.44349 13.2113 8.20372 12.8469 7.96624C12.7562 7.90712 12.6657 7.84815 12.5765 7.78816C12.5397 7.7634 12.4041 7.69944 12.104 7.62321C11.8246 7.55224 11.4918 7.49155 11.1185 7.42749C10.7606 7.36607 10.3578 7.30037 9.99754 7.22381C9.64976 7.14989 9.25194 7.04852 8.92197 6.88684C8.17474 6.52069 7.75483 5.76394 7.53021 5.35912C7.49175 5.28981 7.45764 5.22751 7.42688 5.17132C7.35513 5.04027 7.28504 4.90738 7.20099 4.78364C7.1477 4.76877 7.12835 4.77551 7.10982 4.78197L7.10627 4.7832C7.03127 4.8088 6.76093 4.94234 6.3196 5.57317C5.86125 6.22838 5.54188 7.37796 5.5039 9.19022C5.74826 9.69074 6.07414 10.145 6.46465 10.5355C6.85517 10.9261 6.85517 11.5592 6.46465 11.9498C6.07413 12.3403 5.44096 12.3403 5.05044 11.9498C4.43767 11.337 3.93756 10.6105 3.5846 9.80384C3.20841 8.94409 3.00019 7.99504 3.00019 7ZM14.9998 7.06669C15.0357 4.31668 12.7512 2 10.0002 2C9.01211 2 8.09096 2.28661 7.31536 2.78124C7.63195 2.80681 7.89935 2.90008 8.10141 2.98788M14.9998 7.06669C14.59 6.70866 14.1495 6.42454 13.8665 6.24203C13.4681 5.98502 13.0588 5.80221 12.5964 5.68476C12.2314 5.59206 11.8271 5.51985 11.4568 5.4563C11.071 5.3901 10.7237 5.33346 10.4133 5.2675C10.0905 5.19889 9.8973 5.13755 9.80201 5.09086C9.5145 4.94998 9.35736 4.5327 9.21024 4.26344C9.11748 4.09368 9.00492 3.88768 8.89489 3.71901C8.77234 3.53114 8.52143 3.1704 8.10141 2.98788" fill="black" fill-opacity="0.85"/>
</svg>
