<svg width="17" height="18" viewBox="0 0 17 18" fill="none" xmlns="http://www.w3.org/2000/svg">
<path d="M9.875 0.0625C6.43018 0.0625 3.625 3.14819 3.625 6.9375C3.625 8.58374 4.1499 10.093 5.03125 11.2773L0.0507812 16.7559L0.949219 17.7441L5.92969 12.2656C7.00635 13.2351 8.37842 13.8125 9.875 13.8125C13.3198 13.8125 16.125 10.7268 16.125 6.9375C16.125 3.14819 13.3198 0.0625 9.875 0.0625ZM9.875 1.4375C12.6436 1.4375 14.875 3.89209 14.875 6.9375C14.875 9.98291 12.6436 12.4375 9.875 12.4375C7.10645 12.4375 4.875 9.98291 4.875 6.9375C4.875 3.89209 7.10645 1.4375 9.875 1.4375Z" fill="black"/>
</svg>
